<?xml version="1.0" encoding="UTF-8"?>
<svg width="165px" height="161px" viewBox="0 0 165 161" version="1.1" xmlns="http://www.w3.org/2000/svg" xmlns:xlink="http://www.w3.org/1999/xlink">
    <!-- Generator: Sketch 44 (41411) - http://www.bohemiancoding.com/sketch -->
    <title>Polygon</title>
    <desc>Created with Sketch.</desc>
    <defs>
    	<clipPath id="clipping">
    	</clipPath>
    </defs>
    <g id="Welcome" stroke="none" stroke-width="1" fill="none" fill-rule="evenodd">
        <g id="Desktop" transform="translate(-584.000000, -167.000000)" fill="#D8D8D8">
            <path d="M666.5,167 C690.158356,167 694.6767,168.468099 713.816713,182.374132 C732.956725,196.280165 735.749215,200.123698 743.06005,222.624132 C750.370884,245.124566 750.370884,249.875434 743.06005,272.375868 C735.749215,294.876302 732.956725,298.719835 713.816713,312.625868 C694.6767,326.531901 690.158356,328 666.5,328 C642.841644,328 638.3233,326.531901 619.183287,312.625868 C600.043275,298.719835 597.250785,294.876302 589.93995,272.375868 C582.629116,249.875434 582.629116,245.124566 589.93995,222.624132 C597.250785,200.123698 600.043275,196.280165 619.183287,182.374132 C638.3233,168.468099 642.841644,167 666.5,167 Z" id="Polygon"></path>
        </g>
    </g>
</svg>